<?xml version="1.0" standalone="no"?>
<!DOCTYPE svg PUBLIC "-//W3C//DTD SVG 20010904//EN"
 "http://www.w3.org/TR/2001/REC-SVG-20010904/DTD/svg10.dtd">
<svg version="1.0" xmlns="http://www.w3.org/2000/svg"
 width="700.000000pt" height="700.000000pt" viewBox="0 0 700.000000 700.000000"
 preserveAspectRatio="xMidYMid meet">
<metadata>
Created by potrace 1.14, written by Peter Selinger 2001-2017
</metadata>
<g transform="translate(0.000000,700.000000) scale(0.100000,-0.100000)"
fill="#000000" stroke="none">
<path d="M0 3500 l0 -3500 3500 0 3500 0 0 3500 0 3500 -3500 0 -3500 0 0
-3500z m3745 2400 c701 -46 1235 -261 1630 -655 346 -344 544 -765 620 -1316
22 -161 31 -534 16 -710 -52 -618 -255 -1090 -629 -1465 -412 -414 -966 -630
-1695 -663 -1071 -49 -1887 296 -2339 989 -276 422 -405 987 -368 1605 33 556
177 984 452 1348 83 110 282 308 393 390 487 360 1159 527 1920 477z"/>
<path d="M3360 4849 c-402 -50 -673 -311 -790 -764 -45 -176 -63 -340 -63
-590 0 -378 46 -621 163 -860 147 -299 391 -465 729 -495 191 -16 369 11 518
80 100 47 152 82 222 151 170 168 272 395 328 734 25 155 26 620 0 779 -53
332 -149 548 -321 724 -154 159 -342 236 -596 246 -63 3 -149 1 -190 -5z"/>
</g>
</svg>
